<svg width="36" height="44" viewBox="0 0 36 44" fill="none" xmlns="http://www.w3.org/2000/svg">
<path d="M7.09175 42.3C7.09175 42.832 7.30875 43.049 7.80575 43.049H9.05175C10.5847 43.049 11.5087 42.006 11.5087 40.263C11.5087 38.576 10.5987 37.596 9.05175 37.596H7.80575C7.30875 37.596 7.09175 37.813 7.09175 38.352V42.3ZM7.75675 38.429C7.75675 38.282 7.85475 38.198 7.98775 38.198H9.03775C10.1927 38.198 10.8157 38.933 10.8157 40.27C10.8157 41.635 10.1507 42.44 9.01675 42.44H7.98075C7.84075 42.44 7.75675 42.363 7.75675 42.202V38.429ZM14.7111 37.491C13.2061 37.491 12.2611 38.604 12.2611 40.319C12.2611 42.055 13.2131 43.161 14.7111 43.161C16.2091 43.161 17.1471 42.048 17.1471 40.326C17.1471 38.597 16.2091 37.491 14.7111 37.491ZM14.7111 38.093C15.7751 38.093 16.4541 38.961 16.4541 40.284C16.4541 41.691 15.8031 42.552 14.7111 42.552C13.6401 42.552 12.9541 41.677 12.9541 40.326C12.9541 38.975 13.6261 38.093 14.7111 38.093ZM21.6879 39.962C21.6879 40.97 21.7579 41.985 21.7999 42.419C21.6179 42.027 21.2259 41.278 20.9039 40.753L19.1399 37.89C19.0069 37.68 18.8879 37.554 18.5729 37.554C18.2999 37.554 18.1319 37.715 18.1319 37.974V42.804C18.1319 42.993 18.2719 43.091 18.4679 43.091C18.6569 43.091 18.7969 42.993 18.7969 42.804V40.655C18.7969 39.626 18.7409 38.653 18.6989 38.205C18.8599 38.555 19.2099 39.241 19.4899 39.689L21.3449 42.692C21.5199 42.972 21.6319 43.091 21.9329 43.091C22.2129 43.091 22.3529 42.923 22.3529 42.65V37.841C22.3529 37.645 22.2199 37.554 22.0239 37.554C21.8279 37.554 21.6879 37.645 21.6879 37.841V39.962ZM24.238 40.494H26.625C26.793 40.494 26.898 40.361 26.898 40.2C26.898 40.025 26.8 39.899 26.625 39.899H24.238V38.45C24.238 38.282 24.308 38.205 24.476 38.205H26.94C27.122 38.205 27.22 38.072 27.22 37.897C27.22 37.722 27.122 37.596 26.94 37.596H24.294C23.797 37.596 23.58 37.813 23.58 38.352V42.3C23.58 42.832 23.797 43.049 24.294 43.049H27.003C27.185 43.049 27.283 42.909 27.283 42.741C27.283 42.566 27.185 42.44 27.003 42.44H24.497C24.343 42.44 24.238 42.377 24.238 42.216V40.494Z" fill="white"/>
<path d="M18 25.625C20.1875 25.625 22.0472 24.8597 23.579 23.329C25.1097 21.7972 25.875 19.9375 25.875 17.75C25.875 15.5625 25.1097 13.7028 23.579 12.171C22.0472 10.6403 20.1875 9.875 18 9.875C15.8125 9.875 13.9528 10.6403 12.421 12.171C10.8903 13.7028 10.125 15.5625 10.125 17.75C10.125 19.9375 10.8903 21.7972 12.421 23.329C13.9528 24.8597 15.8125 25.625 18 25.625ZM18 23.875L16.075 19.675L11.875 17.75L16.075 15.825L18 11.625L19.925 15.825L24.125 17.75L19.925 19.675L18 23.875ZM4 31.75C3.0375 31.75 2.21383 31.4076 1.529 30.7228C0.843 30.0368 0.5 29.2125 0.5 28.25V7.25C0.5 6.2875 0.843 5.46383 1.529 4.779C2.21383 4.093 3.0375 3.75 4 3.75H9.5125L12.75 0.25H23.25L26.4875 3.75H32C32.9625 3.75 33.7868 4.093 34.4728 4.779C35.1576 5.46383 35.5 6.2875 35.5 7.25V28.25C35.5 29.2125 35.1576 30.0368 34.4728 30.7228C33.7868 31.4076 32.9625 31.75 32 31.75H4Z" fill="white"/>
</svg>
