<svg width="55" height="43" viewBox="0 0 55 43" fill="none" xmlns="http://www.w3.org/2000/svg">
<path d="M2.43688 40.544C2.43688 41.195 2.14288 41.538 1.58988 41.538C1.08588 41.538 0.875877 41.244 0.777877 40.971C0.721877 40.831 0.609877 40.782 0.490877 40.782C0.434877 40.782 0.378877 40.796 0.329877 40.81C0.203877 40.852 0.098877 40.971 0.098877 41.118C0.098877 41.16 0.105877 41.195 0.119877 41.237C0.203877 41.447 0.343877 41.678 0.588877 41.86C0.819877 42.028 1.14888 42.147 1.59688 42.147C2.55588 42.147 3.10888 41.615 3.10888 40.607V36.841C3.10888 36.645 2.96888 36.554 2.78688 36.554C2.58388 36.554 2.43688 36.645 2.43688 36.841V40.544Z" fill="#FFA3C4"/>
<path d="M6.55594 36.491C5.05094 36.491 4.10594 37.604 4.10594 39.319C4.10594 41.055 5.05794 42.161 6.55594 42.161C8.05394 42.161 8.99194 41.048 8.99194 39.326C8.99194 37.597 8.05394 36.491 6.55594 36.491ZM6.55594 37.093C7.61994 37.093 8.29894 37.961 8.29894 39.284C8.29894 40.691 7.64794 41.552 6.55594 41.552C5.48494 41.552 4.79894 40.677 4.79894 39.326C4.79894 37.975 5.47094 37.093 6.55594 37.093Z" fill="#FFA3C4"/>
<path d="M9.96975 41.804C9.96975 41.993 10.1098 42.091 10.2988 42.091C10.4948 42.091 10.6418 41.993 10.6418 41.804V36.841C10.6418 36.645 10.4948 36.554 10.2988 36.554C10.1098 36.554 9.96975 36.645 9.96975 36.841V41.804Z" fill="#FFA3C4"/>
<path d="M15.4195 38.962C15.4195 39.97 15.4895 40.985 15.5315 41.419C15.3495 41.027 14.9575 40.278 14.6355 39.753L12.8715 36.89C12.7385 36.68 12.6195 36.554 12.3045 36.554C12.0315 36.554 11.8635 36.715 11.8635 36.974V41.804C11.8635 41.993 12.0035 42.091 12.1995 42.091C12.3885 42.091 12.5285 41.993 12.5285 41.804V39.655C12.5285 38.626 12.4725 37.653 12.4305 37.205C12.5915 37.555 12.9415 38.241 13.2215 38.689L15.0765 41.692C15.2515 41.972 15.3635 42.091 15.6645 42.091C15.9445 42.091 16.0845 41.923 16.0845 41.65V36.841C16.0845 36.645 15.9515 36.554 15.7555 36.554C15.5595 36.554 15.4195 36.645 15.4195 36.841V38.962Z" fill="#FFA3C4"/>
<path d="M22.0786 42.049C23.1566 42.049 23.7796 41.489 23.7796 40.537C23.7796 39.781 23.4156 39.319 22.7016 39.172C23.3036 38.976 23.5906 38.584 23.5906 37.919C23.5906 37.079 23.0096 36.596 22.0016 36.596H20.3496C19.8526 36.596 19.6426 36.813 19.6426 37.352V41.3C19.6426 41.832 19.8526 42.049 20.3496 42.049H22.0786ZM20.2936 38.899V37.401C20.2936 37.261 20.3636 37.177 20.4966 37.177H21.9526C22.5896 37.177 22.9186 37.457 22.9186 38.003C22.9186 38.563 22.5686 38.899 21.9666 38.899H20.2936ZM20.2936 39.473H21.9876C22.7016 39.473 23.0866 39.816 23.0866 40.474C23.0866 41.118 22.7086 41.468 22.0016 41.468H20.5176C20.3636 41.468 20.2936 41.391 20.2936 41.237V39.473Z" fill="#FFA3C4"/>
<path d="M24.7007 40.04C24.7007 41.447 25.4777 42.168 26.8287 42.168C28.2147 42.168 28.9637 41.426 28.9637 40.04V36.841C28.9637 36.645 28.8237 36.554 28.6277 36.554C28.4317 36.554 28.2917 36.645 28.2917 36.841V40.012C28.2917 41.041 27.7877 41.559 26.8217 41.559C25.8767 41.559 25.3727 41.048 25.3727 40.019V36.841C25.3727 36.645 25.2257 36.554 25.0437 36.554C24.8407 36.554 24.7007 36.645 24.7007 36.841V40.04Z" fill="#FFA3C4"/>
<path d="M34.1256 41.265C33.6076 39.956 33.3836 39.487 32.9636 39.361C33.6146 39.221 34.0696 38.801 34.0696 37.996C34.0696 37.135 33.5096 36.596 32.4946 36.596H30.8566C30.3596 36.596 30.1426 36.813 30.1426 37.352V41.79C30.1426 41.993 30.2826 42.091 30.4786 42.091C30.6676 42.091 30.8006 41.993 30.8006 41.797V39.599H32.0886C32.7886 39.599 32.9846 40.096 33.4886 41.461L33.6636 41.909C33.7126 42.035 33.8176 42.091 33.9366 42.091C33.9856 42.091 34.0416 42.084 34.0906 42.07C34.2306 42.035 34.3216 41.93 34.3216 41.797C34.3216 41.755 34.3146 41.72 34.3006 41.678L34.1256 41.265ZM30.8006 39.025V37.422C30.8006 37.254 30.8846 37.177 31.0316 37.177H32.4526C33.0756 37.177 33.3976 37.499 33.3976 38.094C33.3976 38.654 33.0056 39.025 32.4106 39.025H30.8006Z" fill="#FFA3C4"/>
<path d="M36.0137 40.453H38.4357L38.9887 41.902C39.0377 42.035 39.1497 42.098 39.2757 42.098C39.3177 42.098 39.3597 42.091 39.4017 42.077C39.5417 42.042 39.6537 41.937 39.6537 41.797C39.6537 41.755 39.6467 41.72 39.6257 41.678L37.7217 36.883C37.6307 36.645 37.4487 36.554 37.2247 36.554C37.0077 36.554 36.8327 36.645 36.7417 36.883L34.8377 41.664C34.8237 41.706 34.8167 41.741 34.8167 41.783C34.8167 41.916 34.9217 42.035 35.0617 42.07C35.1107 42.084 35.1527 42.091 35.2017 42.091C35.3207 42.091 35.4257 42.035 35.4747 41.895L36.0137 40.453ZM36.2237 39.865L37.0147 37.835C37.0987 37.625 37.1687 37.401 37.2317 37.163C37.2947 37.401 37.3717 37.625 37.4487 37.828L38.2257 39.865H36.2237Z" fill="#FFA3C4"/>
<path d="M44.482 41.265C43.964 39.956 43.74 39.487 43.32 39.361C43.971 39.221 44.426 38.801 44.426 37.996C44.426 37.135 43.866 36.596 42.851 36.596H41.2131C40.7161 36.596 40.4991 36.813 40.4991 37.352V41.79C40.4991 41.993 40.639 42.091 40.835 42.091C41.024 42.091 41.157 41.993 41.157 41.797V39.599H42.445C43.145 39.599 43.3411 40.096 43.8451 41.461L44.0201 41.909C44.069 42.035 44.174 42.091 44.293 42.091C44.342 42.091 44.398 42.084 44.447 42.07C44.587 42.035 44.6781 41.93 44.6781 41.797C44.6781 41.755 44.671 41.72 44.657 41.678L44.482 41.265ZM41.157 39.025V37.422C41.157 37.254 41.241 37.177 41.3881 37.177H42.809C43.432 37.177 43.754 37.499 43.754 38.094C43.754 38.654 43.362 39.025 42.767 39.025H41.157Z" fill="#FFA3C4"/>
<path d="M49.5201 41.265C49.0021 39.956 48.7781 39.487 48.3581 39.361C49.0091 39.221 49.4641 38.801 49.4641 37.996C49.4641 37.135 48.9041 36.596 47.8891 36.596H46.2511C45.7541 36.596 45.5371 36.813 45.5371 37.352V41.79C45.5371 41.993 45.6771 42.091 45.8731 42.091C46.0621 42.091 46.1951 41.993 46.1951 41.797V39.599H47.4831C48.1831 39.599 48.3791 40.096 48.8831 41.461L49.0581 41.909C49.1071 42.035 49.2121 42.091 49.3311 42.091C49.3801 42.091 49.4361 42.084 49.4851 42.07C49.6251 42.035 49.7161 41.93 49.7161 41.797C49.7161 41.755 49.7091 41.72 49.6951 41.678L49.5201 41.265ZM46.1951 39.025V37.422C46.1951 37.254 46.2791 37.177 46.4261 37.177H47.8471C48.4701 37.177 48.7921 37.499 48.7921 38.094C48.7921 38.654 48.4001 39.025 47.8051 39.025H46.1951Z" fill="#FFA3C4"/>
<path d="M52.4582 39.186L50.8622 36.694C50.7922 36.589 50.7012 36.547 50.6102 36.547C50.5472 36.547 50.4842 36.568 50.4212 36.596C50.3092 36.659 50.2182 36.764 50.2182 36.883C50.2182 36.932 50.2322 36.974 50.2602 37.023L52.1222 39.809V41.804C52.1222 41.993 52.2552 42.091 52.4582 42.091C52.6472 42.091 52.7872 41.993 52.7872 41.804V39.809L54.6352 37.037C54.6702 36.988 54.6842 36.932 54.6842 36.883C54.6842 36.764 54.6002 36.659 54.4952 36.603C54.4322 36.568 54.3692 36.547 54.3062 36.547C54.2082 36.547 54.1172 36.589 54.0542 36.694L52.4582 39.186Z" fill="#FFA3C4"/>
<path d="M14 30C14 31.1046 14.8954 32 16 32H40C41.1046 32 42 31.1046 42 30C42 28.8954 41.1046 28 40 28H16C14.8954 28 14 28.8954 14 30ZM38 15.9998H33.84C32.8237 15.9998 32 15.1761 32 14.1598V13.5685C32 11.8579 32.555 10.2304 33.3412 8.71099C33.9106 7.61035 34.1475 6.31158 33.9069 4.93469C33.4838 2.51091 31.5025 0.515891 29.0781 0.0940116C25.2888 -0.565371 22 2.33279 22 5.9997C22 6.88471 22.195 7.72097 22.5431 8.47348C23.3763 10.2766 24 12.1685 24 14.1554V14.1598C24 15.1761 23.1763 15.9998 22.16 15.9998H18C14.6862 15.9998 12 18.6861 12 21.9999V23.9999C12 25.1043 12.8956 25.9999 14 25.9999H42C43.1044 25.9999 44 25.1043 44 23.9999V21.9999C44 18.6861 41.3138 15.9998 38 15.9998Z" fill="#FFA3C4"/>
<path d="M34.226 14.898V19.83C34.226 20.28 34.514 20.514 34.982 20.514C35.432 20.514 35.738 20.28 35.738 19.83V14.898H40.652C41.12 14.898 41.336 14.61 41.336 14.142C41.336 13.692 41.12 13.386 40.652 13.386H35.738V8.63395C35.738 8.18395 35.432 7.94995 34.982 7.94995C34.514 7.94995 34.226 8.18395 34.226 8.63395V13.386H29.33C28.88 13.386 28.646 13.692 28.646 14.142C28.646 14.61 28.88 14.898 29.33 14.898H34.226Z" fill="#FFA3C4"/>
<path fill-rule="evenodd" clip-rule="evenodd" d="M33.226 19.83V15.898H29.33C28.8818 15.898 28.4116 15.7462 28.0683 15.3558C27.7426 14.9854 27.646 14.5299 27.646 14.142C27.646 13.7547 27.7465 13.307 28.0627 12.9412C28.3971 12.5544 28.8632 12.386 29.33 12.386H33.226V8.63395C33.226 8.18571 33.3778 7.71551 33.7682 7.37223C34.1385 7.04655 34.594 6.94995 34.982 6.94995C35.3692 6.94995 35.8169 7.05049 36.1827 7.36667C36.5696 7.70106 36.738 8.16719 36.738 8.63395V12.386H40.652C41.1178 12.386 41.5931 12.5483 41.9324 12.9487C42.2488 13.322 42.336 13.7728 42.336 14.142C42.336 14.5117 42.2525 14.9707 41.9269 15.3484C41.5789 15.752 41.0992 15.898 40.652 15.898H36.738V19.83C36.738 20.2967 36.5696 20.7628 36.1827 21.0972C35.8169 21.4134 35.3692 21.514 34.982 21.514C34.594 21.514 34.1385 21.4173 33.7682 21.0917C33.3778 20.7484 33.226 20.2782 33.226 19.83ZM34.226 14.898H29.33C28.88 14.898 28.646 14.61 28.646 14.142C28.646 13.692 28.88 13.386 29.33 13.386H34.226V8.63395C34.226 8.18395 34.514 7.94995 34.982 7.94995C35.432 7.94995 35.738 8.18395 35.738 8.63395V13.386H40.652C41.12 13.386 41.336 13.692 41.336 14.142C41.336 14.61 41.12 14.898 40.652 14.898H35.738V19.83C35.738 20.28 35.432 20.514 34.982 20.514C34.514 20.514 34.226 20.28 34.226 19.83V14.898Z" fill="white"/>
</svg>
