<svg width="43" height="44" viewBox="0 0 43 44" fill="none" xmlns="http://www.w3.org/2000/svg">
<path d="M2.21166 39.857C1.42766 39.703 1.18266 39.444 1.18266 38.94C1.18266 38.478 1.55366 38.072 2.36566 38.072C3.14266 38.072 3.43666 38.464 3.54866 38.863C3.60466 39.01 3.73066 39.066 3.85666 39.066C3.89866 39.066 3.94066 39.059 3.97566 39.052C4.11566 39.024 4.23466 38.919 4.23466 38.772C4.23466 38.737 4.22766 38.702 4.21366 38.667C4.05966 38.163 3.62566 37.491 2.36566 37.491C1.04966 37.491 0.503664 38.205 0.503664 38.94C0.503664 39.857 0.979664 40.256 2.02966 40.473L2.58966 40.592C3.41566 40.76 3.73066 41.012 3.73066 41.586C3.73066 42.188 3.23366 42.573 2.43566 42.573C1.41366 42.573 1.18266 42.048 1.05666 41.579C1.01466 41.432 0.881664 41.369 0.748664 41.369C0.706664 41.369 0.671664 41.376 0.629664 41.383C0.482664 41.418 0.363664 41.523 0.363664 41.677C0.363664 41.705 0.370664 41.733 0.377664 41.768C0.545664 42.335 0.874664 43.161 2.47066 43.161C3.72366 43.161 4.41666 42.482 4.41666 41.579C4.41666 40.564 3.82166 40.193 2.72966 39.962L2.21166 39.857ZM8.91695 39.962C8.91695 40.97 8.98695 41.985 9.02895 42.419C8.84695 42.027 8.45495 41.278 8.13295 40.753L6.36895 37.89C6.23595 37.68 6.11695 37.554 5.80195 37.554C5.52895 37.554 5.36095 37.715 5.36095 37.974V42.804C5.36095 42.993 5.50095 43.091 5.69695 43.091C5.88595 43.091 6.02595 42.993 6.02595 42.804V40.655C6.02595 39.626 5.96995 38.653 5.92795 38.205C6.08895 38.555 6.43895 39.241 6.71895 39.689L8.57395 42.692C8.74895 42.972 8.86095 43.091 9.16195 43.091C9.44195 43.091 9.58195 42.923 9.58195 42.65V37.841C9.58195 37.645 9.44895 37.554 9.25295 37.554C9.05695 37.554 8.91695 37.645 8.91695 37.841V39.962ZM11.642 41.453H14.064L14.617 42.902C14.666 43.035 14.778 43.098 14.904 43.098C14.946 43.098 14.988 43.091 15.03 43.077C15.17 43.042 15.282 42.937 15.282 42.797C15.282 42.755 15.275 42.72 15.254 42.678L13.35 37.883C13.259 37.645 13.077 37.554 12.853 37.554C12.636 37.554 12.461 37.645 12.37 37.883L10.466 42.664C10.452 42.706 10.445 42.741 10.445 42.783C10.445 42.916 10.55 43.035 10.69 43.07C10.739 43.084 10.781 43.091 10.83 43.091C10.949 43.091 11.054 43.035 11.103 42.895L11.642 41.453ZM11.852 40.865L12.643 38.835C12.727 38.625 12.797 38.401 12.86 38.163C12.923 38.401 13 38.625 13.077 38.828L13.854 40.865H11.852ZM16.7924 40.816H18.3744C19.4874 40.816 20.1314 40.207 20.1314 39.157C20.1314 38.163 19.5084 37.596 18.4024 37.596H16.8484C16.3514 37.596 16.1344 37.813 16.1344 38.352V42.79C16.1344 42.993 16.2674 43.091 16.4634 43.091C16.6524 43.091 16.7924 42.993 16.7924 42.797V40.816ZM16.7924 40.228V38.436C16.7924 38.282 16.8624 38.191 17.0164 38.191H18.3604C19.0604 38.191 19.4454 38.541 19.4454 39.171C19.4454 39.85 19.0674 40.228 18.3604 40.228H16.7924ZM24.907 39.857C24.123 39.703 23.878 39.444 23.878 38.94C23.878 38.478 24.249 38.072 25.061 38.072C25.838 38.072 26.132 38.464 26.244 38.863C26.3 39.01 26.426 39.066 26.552 39.066C26.594 39.066 26.636 39.059 26.671 39.052C26.811 39.024 26.93 38.919 26.93 38.772C26.93 38.737 26.923 38.702 26.909 38.667C26.755 38.163 26.321 37.491 25.061 37.491C23.745 37.491 23.199 38.205 23.199 38.94C23.199 39.857 23.675 40.256 24.725 40.473L25.285 40.592C26.111 40.76 26.426 41.012 26.426 41.586C26.426 42.188 25.929 42.573 25.131 42.573C24.109 42.573 23.878 42.048 23.752 41.579C23.71 41.432 23.577 41.369 23.444 41.369C23.402 41.369 23.367 41.376 23.325 41.383C23.178 41.418 23.059 41.523 23.059 41.677C23.059 41.705 23.066 41.733 23.073 41.768C23.241 42.335 23.57 43.161 25.166 43.161C26.419 43.161 27.112 42.482 27.112 41.579C27.112 40.564 26.517 40.193 25.425 39.962L24.907 39.857ZM31.7103 39.878H28.7283V37.841C28.7283 37.645 28.5813 37.554 28.3923 37.554C28.1963 37.554 28.0563 37.645 28.0563 37.841V42.804C28.0563 42.993 28.1963 43.091 28.3923 43.091C28.5813 43.091 28.7283 42.993 28.7283 42.804V40.487H31.7103V42.804C31.7103 42.993 31.8573 43.091 32.0603 43.091C32.2423 43.091 32.3823 42.993 32.3823 42.804V37.841C32.3823 37.645 32.2423 37.554 32.0603 37.554C31.8573 37.554 31.7103 37.645 31.7103 37.841V39.878ZM35.819 37.491C34.314 37.491 33.369 38.604 33.369 40.319C33.369 42.055 34.321 43.161 35.819 43.161C37.317 43.161 38.255 42.048 38.255 40.326C38.255 38.597 37.317 37.491 35.819 37.491ZM35.819 38.093C36.883 38.093 37.562 38.961 37.562 40.284C37.562 41.691 36.911 42.552 35.819 42.552C34.748 42.552 34.062 41.677 34.062 40.326C34.062 38.975 34.734 38.093 35.819 38.093ZM40.2509 38.212V42.804C40.2509 42.993 40.3979 43.091 40.5869 43.091C40.7759 43.091 40.9229 42.993 40.9229 42.804V38.212H42.5119C42.6729 38.212 42.7779 38.072 42.7779 37.911C42.7779 37.743 42.6799 37.596 42.5119 37.596H38.6549C38.4869 37.596 38.3889 37.743 38.3889 37.911C38.3889 38.072 38.4869 38.212 38.6619 38.212H40.2509Z" fill="#FFA3C4"/>
<path d="M22 25.625C24.1875 25.625 26.0472 24.8597 27.579 23.329C29.1097 21.7972 29.875 19.9375 29.875 17.75C29.875 15.5625 29.1097 13.7028 27.579 12.171C26.0472 10.6403 24.1875 9.875 22 9.875C19.8125 9.875 17.9528 10.6403 16.421 12.171C14.8903 13.7028 14.125 15.5625 14.125 17.75C14.125 19.9375 14.8903 21.7972 16.421 23.329C17.9528 24.8597 19.8125 25.625 22 25.625ZM22 23.875L20.075 19.675L15.875 17.75L20.075 15.825L22 11.625L23.925 15.825L28.125 17.75L23.925 19.675L22 23.875ZM8 31.75C7.0375 31.75 6.21383 31.4076 5.529 30.7228C4.843 30.0368 4.5 29.2125 4.5 28.25V7.25C4.5 6.2875 4.843 5.46383 5.529 4.779C6.21383 4.093 7.0375 3.75 8 3.75H13.5125L16.75 0.25H27.25L30.4875 3.75H36C36.9625 3.75 37.7868 4.093 38.4728 4.779C39.1576 5.46383 39.5 6.2875 39.5 7.25V28.25C39.5 29.2125 39.1576 30.0368 38.4728 30.7228C37.7868 31.4076 36.9625 31.75 36 31.75H8Z" fill="#FFA3C4"/>
</svg>
