<svg width="58" height="43" viewBox="0 0 58 43" fill="none" xmlns="http://www.w3.org/2000/svg">
<path d="M2.27769 38.857C1.49369 38.703 1.24869 38.444 1.24869 37.94C1.24869 37.478 1.61969 37.072 2.43169 37.072C3.20869 37.072 3.50269 37.464 3.61469 37.863C3.67069 38.01 3.79669 38.066 3.92269 38.066C3.96469 38.066 4.00669 38.059 4.04169 38.052C4.18169 38.024 4.30069 37.919 4.30069 37.772C4.30069 37.737 4.29369 37.702 4.27969 37.667C4.12569 37.163 3.69169 36.491 2.43169 36.491C1.11569 36.491 0.569687 37.205 0.569687 37.94C0.569687 38.857 1.04569 39.256 2.09569 39.473L2.65569 39.592C3.48169 39.76 3.79669 40.012 3.79669 40.586C3.79669 41.188 3.29969 41.573 2.50169 41.573C1.47969 41.573 1.24869 41.048 1.12269 40.579C1.08069 40.432 0.947688 40.369 0.814688 40.369C0.772688 40.369 0.737688 40.376 0.695687 40.383C0.548687 40.418 0.429688 40.523 0.429688 40.677C0.429688 40.705 0.436687 40.733 0.443687 40.768C0.611687 41.335 0.940687 42.161 2.53669 42.161C3.78969 42.161 4.48269 41.482 4.48269 40.579C4.48269 39.564 3.88769 39.193 2.79569 38.962L2.27769 38.857Z" fill="white"/>
<path d="M6.85498 37.212V41.804C6.85498 41.993 7.00198 42.091 7.19098 42.091C7.37998 42.091 7.52698 41.993 7.52698 41.804V37.212H9.11598C9.27698 37.212 9.38198 37.072 9.38198 36.911C9.38198 36.743 9.28398 36.596 9.11598 36.596H5.25898C5.09098 36.596 4.99298 36.743 4.99298 36.911C4.99298 37.072 5.09098 37.212 5.26598 37.212H6.85498Z" fill="white"/>
<path d="M11.9525 36.491C10.4475 36.491 9.50245 37.604 9.50245 39.319C9.50245 41.055 10.4545 42.161 11.9525 42.161C13.4505 42.161 14.3885 41.048 14.3885 39.326C14.3885 37.597 13.4505 36.491 11.9525 36.491ZM11.9525 37.093C13.0165 37.093 13.6955 37.961 13.6955 39.284C13.6955 40.691 13.0445 41.552 11.9525 41.552C10.8815 41.552 10.1955 40.677 10.1955 39.326C10.1955 37.975 10.8675 37.093 11.9525 37.093Z" fill="white"/>
<path d="M16.0313 39.816H17.6133C18.7263 39.816 19.3703 39.207 19.3703 38.157C19.3703 37.163 18.7473 36.596 17.6413 36.596H16.0873C15.5903 36.596 15.3733 36.813 15.3733 37.352V41.79C15.3733 41.993 15.5063 42.091 15.7023 42.091C15.8913 42.091 16.0313 41.993 16.0313 41.797V39.816ZM16.0313 39.228V37.436C16.0313 37.282 16.1013 37.191 16.2553 37.191H17.5993C18.2993 37.191 18.6843 37.541 18.6843 38.171C18.6843 38.85 18.3063 39.228 17.5993 39.228H16.0313Z" fill="white"/>
<path d="M25.0279 42.049C26.1059 42.049 26.7289 41.489 26.7289 40.537C26.7289 39.781 26.3649 39.319 25.6509 39.172C26.2529 38.976 26.5399 38.584 26.5399 37.919C26.5399 37.079 25.9589 36.596 24.9509 36.596H23.2989C22.8019 36.596 22.5919 36.813 22.5919 37.352V41.3C22.5919 41.832 22.8019 42.049 23.2989 42.049H25.0279ZM23.2429 38.899V37.401C23.2429 37.261 23.3129 37.177 23.4459 37.177H24.9019C25.5389 37.177 25.8679 37.457 25.8679 38.003C25.8679 38.563 25.5179 38.899 24.9159 38.899H23.2429ZM23.2429 39.473H24.9369C25.6509 39.473 26.0359 39.816 26.0359 40.474C26.0359 41.118 25.6579 41.468 24.9509 41.468H23.4669C23.3129 41.468 23.2429 41.391 23.2429 41.237V39.473Z" fill="white"/>
<path d="M27.65 40.04C27.65 41.447 28.427 42.168 29.778 42.168C31.164 42.168 31.913 41.426 31.913 40.04V36.841C31.913 36.645 31.773 36.554 31.577 36.554C31.381 36.554 31.241 36.645 31.241 36.841V40.012C31.241 41.041 30.737 41.559 29.771 41.559C28.826 41.559 28.322 41.048 28.322 40.019V36.841C28.322 36.645 28.175 36.554 27.993 36.554C27.79 36.554 27.65 36.645 27.65 36.841V40.04Z" fill="white"/>
<path d="M37.0749 41.265C36.5569 39.956 36.3329 39.487 35.9129 39.361C36.5639 39.221 37.0189 38.801 37.0189 37.996C37.0189 37.135 36.4589 36.596 35.4439 36.596H33.8059C33.3089 36.596 33.0919 36.813 33.0919 37.352V41.79C33.0919 41.993 33.2319 42.091 33.4279 42.091C33.6169 42.091 33.7499 41.993 33.7499 41.797V39.599H35.0379C35.7379 39.599 35.9339 40.096 36.4379 41.461L36.6129 41.909C36.6619 42.035 36.7669 42.091 36.8859 42.091C36.9349 42.091 36.9909 42.084 37.0399 42.07C37.1799 42.035 37.2709 41.93 37.2709 41.797C37.2709 41.755 37.2639 41.72 37.2499 41.678L37.0749 41.265ZM33.7499 39.025V37.422C33.7499 37.254 33.8339 37.177 33.9809 37.177H35.4019C36.0249 37.177 36.3469 37.499 36.3469 38.094C36.3469 38.654 35.9549 39.025 35.3599 39.025H33.7499Z" fill="white"/>
<path d="M38.9629 40.453H41.3849L41.9379 41.902C41.9869 42.035 42.0989 42.098 42.2249 42.098C42.2669 42.098 42.3089 42.091 42.3509 42.077C42.4909 42.042 42.6029 41.937 42.6029 41.797C42.6029 41.755 42.5959 41.72 42.5749 41.678L40.6709 36.883C40.5799 36.645 40.3979 36.554 40.1739 36.554C39.9569 36.554 39.7819 36.645 39.6909 36.883L37.7869 41.664C37.7729 41.706 37.7659 41.741 37.7659 41.783C37.7659 41.916 37.8709 42.035 38.0109 42.07C38.0599 42.084 38.1019 42.091 38.1509 42.091C38.2699 42.091 38.3749 42.035 38.4239 41.895L38.9629 40.453ZM39.1729 39.865L39.9639 37.835C40.0479 37.625 40.1179 37.401 40.1809 37.163C40.2439 37.401 40.3209 37.625 40.3979 37.828L41.1749 39.865H39.1729Z" fill="white"/>
<path d="M47.4313 41.265C46.9133 39.956 46.6893 39.487 46.2693 39.361C46.9203 39.221 47.3753 38.801 47.3753 37.996C47.3753 37.135 46.8153 36.596 45.8003 36.596H44.1623C43.6653 36.596 43.4483 36.813 43.4483 37.352V41.79C43.4483 41.993 43.5883 42.091 43.7843 42.091C43.9733 42.091 44.1063 41.993 44.1063 41.797V39.599H45.3943C46.0943 39.599 46.2903 40.096 46.7943 41.461L46.9693 41.909C47.0183 42.035 47.1233 42.091 47.2423 42.091C47.2913 42.091 47.3473 42.084 47.3963 42.07C47.5363 42.035 47.6273 41.93 47.6273 41.797C47.6273 41.755 47.6203 41.72 47.6063 41.678L47.4313 41.265ZM44.1063 39.025V37.422C44.1063 37.254 44.1903 37.177 44.3373 37.177H45.7583C46.3813 37.177 46.7033 37.499 46.7033 38.094C46.7033 38.654 46.3113 39.025 45.7163 39.025H44.1063Z" fill="white"/>
<path d="M52.4694 41.265C51.9514 39.956 51.7274 39.487 51.3074 39.361C51.9584 39.221 52.4134 38.801 52.4134 37.996C52.4134 37.135 51.8534 36.596 50.8384 36.596H49.2004C48.7034 36.596 48.4864 36.813 48.4864 37.352V41.79C48.4864 41.993 48.6264 42.091 48.8224 42.091C49.0114 42.091 49.1444 41.993 49.1444 41.797V39.599H50.4324C51.1324 39.599 51.3284 40.096 51.8324 41.461L52.0074 41.909C52.0564 42.035 52.1614 42.091 52.2804 42.091C52.3294 42.091 52.3854 42.084 52.4344 42.07C52.5744 42.035 52.6654 41.93 52.6654 41.797C52.6654 41.755 52.6584 41.72 52.6444 41.678L52.4694 41.265ZM49.1444 39.025V37.422C49.1444 37.254 49.2284 37.177 49.3754 37.177H50.7964C51.4194 37.177 51.7414 37.499 51.7414 38.094C51.7414 38.654 51.3494 39.025 50.7544 39.025H49.1444Z" fill="white"/>
<path d="M55.4075 39.186L53.8115 36.694C53.7415 36.589 53.6505 36.547 53.5595 36.547C53.4965 36.547 53.4335 36.568 53.3705 36.596C53.2585 36.659 53.1675 36.764 53.1675 36.883C53.1675 36.932 53.1815 36.974 53.2095 37.023L55.0715 39.809V41.804C55.0715 41.993 55.2045 42.091 55.4075 42.091C55.5965 42.091 55.7365 41.993 55.7365 41.804V39.809L57.5845 37.037C57.6195 36.988 57.6335 36.932 57.6335 36.883C57.6335 36.764 57.5495 36.659 57.4445 36.603C57.3815 36.568 57.3185 36.547 57.2555 36.547C57.1575 36.547 57.0665 36.589 57.0035 36.694L55.4075 39.186Z" fill="white"/>
<path d="M15 30C15 31.1046 15.8954 32 17 32H41C42.1046 32 43 31.1046 43 30C43 28.8954 42.1046 28 41 28H17C15.8954 28 15 28.8954 15 30ZM39 15.9998H34.84C33.8237 15.9998 33 15.1761 33 14.1598V13.5685C33 11.8579 33.555 10.2304 34.3412 8.71099C34.9106 7.61035 35.1475 6.31158 34.9069 4.93469C34.4838 2.51091 32.5025 0.515891 30.0781 0.0940116C26.2888 -0.565371 23 2.33279 23 5.9997C23 6.88471 23.195 7.72097 23.5431 8.47348C24.3763 10.2766 25 12.1685 25 14.1554V14.1598C25 15.1761 24.1763 15.9998 23.16 15.9998H19C15.6862 15.9998 13 18.6861 13 21.9999V23.9999C13 25.1043 13.8956 25.9999 15 25.9999H43C44.1044 25.9999 45 25.1043 45 23.9999V21.9999C45 18.6861 42.3138 15.9998 39 15.9998Z" fill="white"/>
<path d="M31.9916 15.3479C31.5596 15.3479 31.3076 15.6179 31.3076 16.0859C31.3076 16.5719 31.5776 16.8419 31.9916 16.8419H40.9916C41.4416 16.8419 41.6756 16.5719 41.6756 16.0859C41.6756 15.5999 41.4596 15.3479 40.9916 15.3479H31.9916Z" fill="white"/>
<path fill-rule="evenodd" clip-rule="evenodd" d="M30.7548 14.8609C31.1008 14.4883 31.562 14.3479 31.9916 14.3479H40.9916C41.3998 14.3479 41.8851 14.4616 42.2491 14.862C42.5961 15.2437 42.6756 15.7163 42.6756 16.0859C42.6756 16.4744 42.583 16.9381 42.2476 17.3129C41.8955 17.7065 41.4209 17.8419 40.9916 17.8419H31.9916C31.5607 17.8419 31.1043 17.6952 30.762 17.3271C30.4273 16.9671 30.3076 16.5096 30.3076 16.0859C30.3076 15.6796 30.4184 15.2233 30.7548 14.8609ZM31.3076 16.0859C31.3076 15.6179 31.5596 15.3479 31.9916 15.3479H40.9916C41.4596 15.3479 41.6756 15.5999 41.6756 16.0859C41.6756 16.5719 41.4416 16.8419 40.9916 16.8419H31.9916C31.5776 16.8419 31.3076 16.5719 31.3076 16.0859Z" fill="#FFA3C4"/>
</svg>
